# xmcd CD database file
#
# Track frame offsets:
#	150
#	18418
#	29223
#	40328
#	54695
#	70451
#	87369
#	99225
#	109280
#	122597
#	133628
#	148520
#
# Disc length: 2191 seconds
#
# Revision: 0
# Processed by: cddbd v1.5.2PL0 Copyright (c) Steve Scherf et al.
# Submitted via: CDex 1.79
#
DISCID=ae088d0c
DTITLE=Carleen Still - In My Own Time
DYEAR=2014
DGENRE=Country
TTITLE0=Lonely Too Long
TTITLE1=Bed Of Roses
TTITLE2=Every Second
TTITLE3=Satin Sheets
TTITLE4=Its A Heartache
TTITLE5=Wonderful Tonight
TTITLE6=My Shoes Keep Walking Back To You
TTITLE7=They Don't Make Them Like My Daddy Anymore
TTITLE8=Without You, What Do I Do Without Me
TTITLE9=Pick Me Up On Your Way Down
TTITLE10=Love Me Just A Little Bit Longer
TTITLE11=My Arms Stay Open All Night
EXTD=YEAR: 2014
EXTT0=
EXTT1=
EXTT2=
EXTT3=
EXTT4=
EXTT5=
EXTT6=
EXTT7=
EXTT8=
EXTT9=
EXTT10=
EXTT11=
PLAYORDER=
